<svg width="131" height="39" viewBox="0 0 131 39" fill="none" xmlns="http://www.w3.org/2000/svg">
<path d="M23.9023 11.7969C23.9023 13.4505 23.5898 15.0521 22.9648 16.6016C22.3529 18.138 21.5195 19.5833 20.4648 20.9375C19.4102 22.2917 18.1797 23.5352 16.7734 24.668C15.3802 25.8008 13.9023 26.7839 12.3398 27.6172C10.7773 28.4505 9.17578 29.1146 7.53516 29.6094C5.89453 30.1042 4.3125 30.3971 2.78906 30.4883V8.59375L6.8125 7.16797V28.4375C8.64844 27.9036 10.3281 27.1354 11.8516 26.1328C13.388 25.1172 14.7096 23.9193 15.8164 22.5391C16.9232 21.1589 17.7826 19.6159 18.3945 17.9102C19.0195 16.2044 19.332 14.3815 19.332 12.4414C19.332 11.3346 19.1888 10.2799 18.9023 9.27734C18.6289 8.26172 18.1992 7.3763 17.6133 6.62109C17.0404 5.85286 16.3112 5.2474 15.4258 4.80469C14.5404 4.34896 13.4857 4.12109 12.2617 4.12109C11.2591 4.12109 10.25 4.23177 9.23438 4.45312C8.23177 4.67448 7.2487 4.98698 6.28516 5.39062C5.33464 5.78125 4.41667 6.25 3.53125 6.79688C2.65885 7.34375 1.85156 7.94271 1.10938 8.59375L0.503906 7.92969C1.28516 7.08333 2.20964 6.28906 3.27734 5.54688C4.34505 4.79167 5.48438 4.13411 6.69531 3.57422C7.90625 3.0013 9.14974 2.55208 10.4258 2.22656C11.7018 1.88802 12.9388 1.71875 14.1367 1.71875C15.7513 1.71875 17.1706 1.95964 18.3945 2.44141C19.6185 2.92318 20.6341 3.60677 21.4414 4.49219C22.2617 5.3776 22.8737 6.4388 23.2773 7.67578C23.694 8.91276 23.9023 10.2865 23.9023 11.7969ZM85.9531 29.1602L81.9102 30.6055V2.63672L85.9531 1.19141V29.1602ZM130.289 28.9648C130.289 30.0195 130.152 30.9896 129.879 31.875C129.618 32.7604 129.234 33.5742 128.727 34.3164C128.232 35.0586 127.62 35.7292 126.891 36.3281C126.161 36.9401 125.335 37.5 124.41 38.0078C124.176 38.138 123.902 38.2487 123.59 38.3398C123.29 38.431 122.978 38.5091 122.652 38.5742C122.327 38.6393 122.008 38.6849 121.695 38.7109C121.383 38.75 121.09 38.7695 120.816 38.7695C119.762 38.7695 118.766 38.5807 117.828 38.2031C116.891 37.8255 116.018 37.2917 115.211 36.6016L118.492 33.7109C118.688 34.1016 118.954 34.5052 119.293 34.9219C119.632 35.3516 120.016 35.7357 120.445 36.0742C120.875 36.4258 121.324 36.7122 121.793 36.9336C122.275 37.168 122.75 37.2852 123.219 37.2852C123.544 37.2852 123.837 37.2331 124.098 37.1289C124.579 36.9336 124.964 36.6667 125.25 36.3281C125.536 36.0026 125.751 35.625 125.895 35.1953C126.051 34.7786 126.148 34.3359 126.188 33.8672C126.227 33.3984 126.246 32.9362 126.246 32.4805V22.9297C125.986 23.8932 125.641 24.8177 125.211 25.7031C124.781 26.5755 124.247 27.3503 123.609 28.0273C122.971 28.6914 122.223 29.2253 121.363 29.6289C120.517 30.0326 119.547 30.2344 118.453 30.2344C117.62 30.2344 116.904 30.0781 116.305 29.7656C115.706 29.4531 115.211 29.0365 114.82 28.5156C114.43 27.9948 114.143 27.3958 113.961 26.7188C113.779 26.0286 113.688 25.306 113.688 24.5508V6.44531C113.688 6.1849 113.661 5.92448 113.609 5.66406C113.557 5.40365 113.466 5.17578 113.336 4.98047C113.219 4.77214 113.056 4.60286 112.848 4.47266C112.639 4.34245 112.385 4.27734 112.086 4.27734C111.643 4.27734 111.22 4.40755 110.816 4.66797C110.413 4.92839 110.081 5.22786 109.82 5.56641L109.176 5C109.371 4.6224 109.612 4.25781 109.898 3.90625C110.198 3.55469 110.53 3.24219 110.895 2.96875C111.272 2.69531 111.669 2.48047 112.086 2.32422C112.503 2.15495 112.932 2.07031 113.375 2.07031C114.091 2.07031 114.723 2.20703 115.27 2.48047C115.816 2.75391 116.272 3.125 116.637 3.59375C117.001 4.04948 117.275 4.57682 117.457 5.17578C117.639 5.77474 117.73 6.40625 117.73 7.07031V23.0859C117.73 23.5677 117.737 24.0951 117.75 24.668C117.763 25.2409 117.841 25.7812 117.984 26.2891C118.128 26.7839 118.375 27.2005 118.727 27.5391C119.078 27.8776 119.586 28.0469 120.25 28.0469C120.992 28.0469 121.65 27.8255 122.223 27.3828C122.809 26.9401 123.323 26.3672 123.766 25.6641C124.221 24.9479 124.605 24.1406 124.918 23.2422C125.23 22.3438 125.484 21.4453 125.68 20.5469C125.875 19.6484 126.018 18.7956 126.109 17.9883C126.201 17.168 126.246 16.4779 126.246 15.918V3.16406L130.289 1.71875V28.9648Z" fill="black"/>
<path d="M23.9023 11.7969C23.9023 13.4505 23.5898 15.0521 22.9648 16.6016C22.3529 18.138 21.5195 19.5833 20.4648 20.9375C19.4102 22.2917 18.1797 23.5352 16.7734 24.668C15.3802 25.8008 13.9023 26.7839 12.3398 27.6172C10.7773 28.4505 9.17578 29.1146 7.53516 29.6094C5.89453 30.1042 4.3125 30.3971 2.78906 30.4883V8.59375L6.8125 7.16797V28.4375C8.64844 27.9036 10.3281 27.1354 11.8516 26.1328C13.388 25.1172 14.7096 23.9193 15.8164 22.5391C16.9232 21.1589 17.7826 19.6159 18.3945 17.9102C19.0195 16.2044 19.332 14.3815 19.332 12.4414C19.332 11.3346 19.1888 10.2799 18.9023 9.27734C18.6289 8.26172 18.1992 7.3763 17.6133 6.62109C17.0404 5.85286 16.3112 5.2474 15.4258 4.80469C14.5404 4.34896 13.4857 4.12109 12.2617 4.12109C11.2591 4.12109 10.25 4.23177 9.23438 4.45312C8.23177 4.67448 7.2487 4.98698 6.28516 5.39062C5.33464 5.78125 4.41667 6.25 3.53125 6.79688C2.65885 7.34375 1.85156 7.94271 1.10938 8.59375L0.503906 7.92969C1.28516 7.08333 2.20964 6.28906 3.27734 5.54688C4.34505 4.79167 5.48438 4.13411 6.69531 3.57422C7.90625 3.0013 9.14974 2.55208 10.4258 2.22656C11.7018 1.88802 12.9388 1.71875 14.1367 1.71875C15.7513 1.71875 17.1706 1.95964 18.3945 2.44141C19.6185 2.92318 20.6341 3.60677 21.4414 4.49219C22.2617 5.3776 22.8737 6.4388 23.2773 7.67578C23.694 8.91276 23.9023 10.2865 23.9023 11.7969ZM85.9531 29.1602L81.9102 30.6055V2.63672L85.9531 1.19141V29.1602ZM130.289 28.9648C130.289 30.0195 130.152 30.9896 129.879 31.875C129.618 32.7604 129.234 33.5742 128.727 34.3164C128.232 35.0586 127.62 35.7292 126.891 36.3281C126.161 36.9401 125.335 37.5 124.41 38.0078C124.176 38.138 123.902 38.2487 123.59 38.3398C123.29 38.431 122.978 38.5091 122.652 38.5742C122.327 38.6393 122.008 38.6849 121.695 38.7109C121.383 38.75 121.09 38.7695 120.816 38.7695C119.762 38.7695 118.766 38.5807 117.828 38.2031C116.891 37.8255 116.018 37.2917 115.211 36.6016L118.492 33.7109C118.688 34.1016 118.954 34.5052 119.293 34.9219C119.632 35.3516 120.016 35.7357 120.445 36.0742C120.875 36.4258 121.324 36.7122 121.793 36.9336C122.275 37.168 122.75 37.2852 123.219 37.2852C123.544 37.2852 123.837 37.2331 124.098 37.1289C124.579 36.9336 124.964 36.6667 125.25 36.3281C125.536 36.0026 125.751 35.625 125.895 35.1953C126.051 34.7786 126.148 34.3359 126.188 33.8672C126.227 33.3984 126.246 32.9362 126.246 32.4805V22.9297C125.986 23.8932 125.641 24.8177 125.211 25.7031C124.781 26.5755 124.247 27.3503 123.609 28.0273C122.971 28.6914 122.223 29.2253 121.363 29.6289C120.517 30.0326 119.547 30.2344 118.453 30.2344C117.62 30.2344 116.904 30.0781 116.305 29.7656C115.706 29.4531 115.211 29.0365 114.82 28.5156C114.43 27.9948 114.143 27.3958 113.961 26.7188C113.779 26.0286 113.688 25.306 113.688 24.5508V6.44531C113.688 6.1849 113.661 5.92448 113.609 5.66406C113.557 5.40365 113.466 5.17578 113.336 4.98047C113.219 4.77214 113.056 4.60286 112.848 4.47266C112.639 4.34245 112.385 4.27734 112.086 4.27734C111.643 4.27734 111.22 4.40755 110.816 4.66797C110.413 4.92839 110.081 5.22786 109.82 5.56641L109.176 5C109.371 4.6224 109.612 4.25781 109.898 3.90625C110.198 3.55469 110.53 3.24219 110.895 2.96875C111.272 2.69531 111.669 2.48047 112.086 2.32422C112.503 2.15495 112.932 2.07031 113.375 2.07031C114.091 2.07031 114.723 2.20703 115.27 2.48047C115.816 2.75391 116.272 3.125 116.637 3.59375C117.001 4.04948 117.275 4.57682 117.457 5.17578C117.639 5.77474 117.73 6.40625 117.73 7.07031V23.0859C117.73 23.5677 117.737 24.0951 117.75 24.668C117.763 25.2409 117.841 25.7812 117.984 26.2891C118.128 26.7839 118.375 27.2005 118.727 27.5391C119.078 27.8776 119.586 28.0469 120.25 28.0469C120.992 28.0469 121.65 27.8255 122.223 27.3828C122.809 26.9401 123.323 26.3672 123.766 25.6641C124.221 24.9479 124.605 24.1406 124.918 23.2422C125.23 22.3438 125.484 21.4453 125.68 20.5469C125.875 19.6484 126.018 18.7956 126.109 17.9883C126.201 17.168 126.246 16.4779 126.246 15.918V3.16406L130.289 1.71875V28.9648Z" fill="#A44159"/>
<path d="M52.75 27.3242C52.5547 27.7018 52.3073 28.0664 52.0078 28.418C51.7214 28.7695 51.3893 29.082 51.0117 29.3555C50.6471 29.6159 50.2565 29.8307 49.8398 30C49.4232 30.1562 48.9935 30.2344 48.5508 30.2344C47.8216 30.2344 47.1836 30.0977 46.6367 29.8242C46.1029 29.5508 45.6471 29.1862 45.2695 28.7305C44.9049 28.2617 44.6315 27.7279 44.4492 27.1289C44.2669 26.5299 44.1758 25.8984 44.1758 25.2344V17.6758C43.9935 18.5091 43.7852 19.4076 43.5508 20.3711C43.3164 21.3216 43.0299 22.2721 42.6914 23.2227C42.3529 24.1602 41.9557 25.0651 41.5 25.9375C41.0443 26.8099 40.5039 27.5846 39.8789 28.2617C39.2669 28.9258 38.5638 29.4596 37.7695 29.8633C36.9753 30.2539 36.0703 30.4492 35.0547 30.4492C33.8177 30.4492 32.7109 30.2148 31.7344 29.7461C30.7578 29.2773 29.9245 28.6328 29.2344 27.8125C28.5573 26.9922 28.0365 26.0221 27.6719 24.9023C27.3203 23.7695 27.1445 22.5456 27.1445 21.2305C27.1445 19.668 27.3919 18.1055 27.8867 16.543C28.3815 14.9674 29.0586 13.457 29.918 12.0117C30.7904 10.5664 31.819 9.22526 33.0039 7.98828C34.2018 6.7513 35.5039 5.67708 36.9102 4.76562C38.3164 3.85417 39.7943 3.14453 41.3438 2.63672C42.9062 2.12891 44.4818 1.88802 46.0703 1.91406H46.3047V2.79297C44.9375 2.85807 43.6224 3.15755 42.3594 3.69141C41.0964 4.21224 39.9115 4.90234 38.8047 5.76172C37.7109 6.60807 36.7083 7.59115 35.7969 8.71094C34.8854 9.83073 34.1042 11.0221 33.4531 12.2852C32.8151 13.5482 32.3138 14.8503 31.9492 16.1914C31.5977 17.5326 31.4219 18.8542 31.4219 20.1562C31.4219 20.6641 31.4544 21.2109 31.5195 21.7969C31.5846 22.3698 31.6953 22.9492 31.8516 23.5352C32.0078 24.1081 32.2096 24.6615 32.457 25.1953C32.7044 25.7161 33.0104 26.1849 33.375 26.6016C33.7526 27.0052 34.1888 27.3307 34.6836 27.5781C35.1784 27.8125 35.7448 27.9297 36.3828 27.9297C37.151 27.9297 37.8477 27.6953 38.4727 27.2266C39.0977 26.7578 39.6641 26.1263 40.1719 25.332C40.6797 24.5378 41.1289 23.6133 41.5195 22.5586C41.9232 21.5039 42.2747 20.3906 42.5742 19.2188C42.8737 18.0469 43.1211 16.8555 43.3164 15.6445C43.5247 14.4206 43.6875 13.2487 43.8047 12.1289C43.9349 11.0091 44.026 9.97396 44.0781 9.02344C44.1432 8.0599 44.1758 7.2526 44.1758 6.60156L48.2188 5.11719V25.8789C48.2188 26.1393 48.2448 26.3997 48.2969 26.6602C48.349 26.9206 48.4401 27.1615 48.5703 27.3828C48.7005 27.5911 48.8633 27.7604 49.0586 27.8906C49.2669 28.0208 49.5208 28.0859 49.8203 28.0859C50.276 28.0859 50.7057 27.9492 51.1094 27.6758C51.513 27.4023 51.8451 27.0964 52.1055 26.7578L52.75 27.3242ZM77.0469 25.7617C76.6953 26.2435 76.2786 26.7643 75.7969 27.3242C75.3151 27.8711 74.7878 28.3854 74.2148 28.8672C73.6419 29.3359 73.0299 29.7266 72.3789 30.0391C71.7409 30.3646 71.0833 30.5273 70.4062 30.5273C69.9505 30.5273 69.5273 30.4557 69.1367 30.3125C68.7461 30.1823 68.3815 30 68.043 29.7656C67.7174 29.5312 67.4049 29.2643 67.1055 28.9648C66.819 28.6523 66.5456 28.3333 66.2852 28.0078C65.4258 26.9401 64.5859 25.8659 63.7656 24.7852C62.9583 23.7044 62.1706 22.6042 61.4023 21.4844L61.6172 20.6836C62.4635 20.5404 63.3164 20.3255 64.1758 20.0391C65.0482 19.7396 65.8815 19.375 66.6758 18.9453C67.4701 18.5026 68.2122 17.9948 68.9023 17.4219C69.5924 16.8359 70.1914 16.1914 70.6992 15.4883C71.207 14.7721 71.6042 13.9974 71.8906 13.1641C72.1901 12.3177 72.3398 11.4128 72.3398 10.4492C72.3398 9.52474 72.1901 8.67188 71.8906 7.89062C71.5911 7.10938 71.168 6.43229 70.6211 5.85938C70.0872 5.28646 69.4427 4.84375 68.6875 4.53125C67.9323 4.20573 67.0924 4.04297 66.168 4.04297C64.9961 4.04297 63.8958 4.17318 62.8672 4.43359C61.8516 4.69401 60.8815 5.04557 59.957 5.48828C59.0456 5.91797 58.1667 6.41276 57.3203 6.97266C56.474 7.53255 55.6406 8.11198 54.8203 8.71094L54.2148 8.04688C54.9961 7.29167 55.8359 6.53646 56.7344 5.78125C57.6458 5.01302 58.668 4.32292 59.8008 3.71094C60.9336 3.09896 62.1966 2.60417 63.5898 2.22656C64.9961 1.83594 66.5781 1.64062 68.3359 1.64062C69.5208 1.64062 70.6081 1.84896 71.5977 2.26562C72.6003 2.68229 73.4596 3.26172 74.1758 4.00391C74.8919 4.74609 75.4518 5.625 75.8555 6.64062C76.2591 7.65625 76.4609 8.76302 76.4609 9.96094C76.4609 11.8229 75.9922 13.444 75.0547 14.8242C74.1172 16.1914 72.8477 17.3047 71.2461 18.1641C71.0508 18.2682 70.8034 18.4049 70.5039 18.5742C70.2174 18.7435 69.8984 18.9258 69.5469 19.1211C69.2083 19.3164 68.8568 19.5117 68.4922 19.707C68.1276 19.9023 67.776 20.0846 67.4375 20.2539C67.099 20.4102 66.7865 20.5469 66.5 20.6641C66.2135 20.7812 65.9727 20.8529 65.7773 20.8789C66.0508 21.2435 66.3828 21.6797 66.7734 22.1875C67.1771 22.6953 67.5938 23.2161 68.0234 23.75C68.4531 24.2839 68.8763 24.7917 69.293 25.2734C69.7227 25.7552 70.1068 26.1458 70.4453 26.4453C70.7708 26.7188 71.0964 26.9596 71.4219 27.168C71.7604 27.3763 72.1576 27.4805 72.6133 27.4805C72.9648 27.4805 73.3164 27.4089 73.668 27.2656C74.0195 27.1094 74.3581 26.9141 74.6836 26.6797C75.0091 26.4453 75.3151 26.1914 75.6016 25.918C75.888 25.6445 76.1419 25.3906 76.3633 25.1562L77.0469 25.7617ZM60.5234 29.1211L56.5 30.6055V8.71094L60.5234 7.28516V29.1211ZM110.562 1.32812C110.146 1.95312 109.651 2.53906 109.078 3.08594C108.505 3.63281 107.874 4.11458 107.184 4.53125C106.507 4.94792 105.79 5.27995 105.035 5.52734C104.28 5.76172 103.525 5.87891 102.77 5.87891L102.32 5.91797C101.826 6.54297 101.448 7.14844 101.188 7.73438C100.927 8.32031 100.797 9.01042 100.797 9.80469V22.2852C100.797 24.0169 100.426 25.5599 99.6836 26.9141C98.9544 28.2552 97.8737 29.4141 96.4414 30.3906L95.7969 29.6484C96.0182 29.401 96.194 29.1211 96.3242 28.8086C96.4544 28.4831 96.5521 28.151 96.6172 27.8125C96.6823 27.474 96.7214 27.1354 96.7344 26.7969C96.7604 26.4453 96.7734 26.1133 96.7734 25.8008V12.0703C96.7734 11.4583 96.8971 10.8659 97.1445 10.293C97.4049 9.70703 97.7305 9.15365 98.1211 8.63281C98.5117 8.11198 98.9414 7.6237 99.4102 7.16797C99.8919 6.71224 100.354 6.29557 100.797 5.91797L94.332 5.87891C93.8372 5.87891 93.3945 5.93099 93.0039 6.03516C92.6263 6.1263 92.2747 6.26302 91.9492 6.44531C91.6237 6.6276 91.3112 6.85547 91.0117 7.12891C90.7122 7.40234 90.4062 7.72135 90.0938 8.08594L89.5273 7.48047C89.957 6.89453 90.4388 6.27604 90.9727 5.625C91.5195 4.97396 92.1055 4.38151 92.7305 3.84766C93.3685 3.3138 94.0456 2.87109 94.7617 2.51953C95.4909 2.16797 96.2526 1.99219 97.0469 1.99219H105.484C105.823 1.99219 106.201 1.97266 106.617 1.93359C107.047 1.89453 107.477 1.82943 107.906 1.73828C108.336 1.64714 108.74 1.52995 109.117 1.38672C109.508 1.23047 109.833 1.03516 110.094 0.800781L110.562 1.32812Z" fill="black"/>
<path d="M52.75 27.3242C52.5547 27.7018 52.3073 28.0664 52.0078 28.418C51.7214 28.7695 51.3893 29.082 51.0117 29.3555C50.6471 29.6159 50.2565 29.8307 49.8398 30C49.4232 30.1562 48.9935 30.2344 48.5508 30.2344C47.8216 30.2344 47.1836 30.0977 46.6367 29.8242C46.1029 29.5508 45.6471 29.1862 45.2695 28.7305C44.9049 28.2617 44.6315 27.7279 44.4492 27.1289C44.2669 26.5299 44.1758 25.8984 44.1758 25.2344V17.6758C43.9935 18.5091 43.7852 19.4076 43.5508 20.3711C43.3164 21.3216 43.0299 22.2721 42.6914 23.2227C42.3529 24.1602 41.9557 25.0651 41.5 25.9375C41.0443 26.8099 40.5039 27.5846 39.8789 28.2617C39.2669 28.9258 38.5638 29.4596 37.7695 29.8633C36.9753 30.2539 36.0703 30.4492 35.0547 30.4492C33.8177 30.4492 32.7109 30.2148 31.7344 29.7461C30.7578 29.2773 29.9245 28.6328 29.2344 27.8125C28.5573 26.9922 28.0365 26.0221 27.6719 24.9023C27.3203 23.7695 27.1445 22.5456 27.1445 21.2305C27.1445 19.668 27.3919 18.1055 27.8867 16.543C28.3815 14.9674 29.0586 13.457 29.918 12.0117C30.7904 10.5664 31.819 9.22526 33.0039 7.98828C34.2018 6.7513 35.5039 5.67708 36.9102 4.76562C38.3164 3.85417 39.7943 3.14453 41.3438 2.63672C42.9062 2.12891 44.4818 1.88802 46.0703 1.91406H46.3047V2.79297C44.9375 2.85807 43.6224 3.15755 42.3594 3.69141C41.0964 4.21224 39.9115 4.90234 38.8047 5.76172C37.7109 6.60807 36.7083 7.59115 35.7969 8.71094C34.8854 9.83073 34.1042 11.0221 33.4531 12.2852C32.8151 13.5482 32.3138 14.8503 31.9492 16.1914C31.5977 17.5326 31.4219 18.8542 31.4219 20.1562C31.4219 20.6641 31.4544 21.2109 31.5195 21.7969C31.5846 22.3698 31.6953 22.9492 31.8516 23.5352C32.0078 24.1081 32.2096 24.6615 32.457 25.1953C32.7044 25.7161 33.0104 26.1849 33.375 26.6016C33.7526 27.0052 34.1888 27.3307 34.6836 27.5781C35.1784 27.8125 35.7448 27.9297 36.3828 27.9297C37.151 27.9297 37.8477 27.6953 38.4727 27.2266C39.0977 26.7578 39.6641 26.1263 40.1719 25.332C40.6797 24.5378 41.1289 23.6133 41.5195 22.5586C41.9232 21.5039 42.2747 20.3906 42.5742 19.2188C42.8737 18.0469 43.1211 16.8555 43.3164 15.6445C43.5247 14.4206 43.6875 13.2487 43.8047 12.1289C43.9349 11.0091 44.026 9.97396 44.0781 9.02344C44.1432 8.0599 44.1758 7.2526 44.1758 6.60156L48.2188 5.11719V25.8789C48.2188 26.1393 48.2448 26.3997 48.2969 26.6602C48.349 26.9206 48.4401 27.1615 48.5703 27.3828C48.7005 27.5911 48.8633 27.7604 49.0586 27.8906C49.2669 28.0208 49.5208 28.0859 49.8203 28.0859C50.276 28.0859 50.7057 27.9492 51.1094 27.6758C51.513 27.4023 51.8451 27.0964 52.1055 26.7578L52.75 27.3242ZM77.0469 25.7617C76.6953 26.2435 76.2786 26.7643 75.7969 27.3242C75.3151 27.8711 74.7878 28.3854 74.2148 28.8672C73.6419 29.3359 73.0299 29.7266 72.3789 30.0391C71.7409 30.3646 71.0833 30.5273 70.4062 30.5273C69.9505 30.5273 69.5273 30.4557 69.1367 30.3125C68.7461 30.1823 68.3815 30 68.043 29.7656C67.7174 29.5312 67.4049 29.2643 67.1055 28.9648C66.819 28.6523 66.5456 28.3333 66.2852 28.0078C65.4258 26.9401 64.5859 25.8659 63.7656 24.7852C62.9583 23.7044 62.1706 22.6042 61.4023 21.4844L61.6172 20.6836C62.4635 20.5404 63.3164 20.3255 64.1758 20.0391C65.0482 19.7396 65.8815 19.375 66.6758 18.9453C67.4701 18.5026 68.2122 17.9948 68.9023 17.4219C69.5924 16.8359 70.1914 16.1914 70.6992 15.4883C71.207 14.7721 71.6042 13.9974 71.8906 13.1641C72.1901 12.3177 72.3398 11.4128 72.3398 10.4492C72.3398 9.52474 72.1901 8.67188 71.8906 7.89062C71.5911 7.10938 71.168 6.43229 70.6211 5.85938C70.0872 5.28646 69.4427 4.84375 68.6875 4.53125C67.9323 4.20573 67.0924 4.04297 66.168 4.04297C64.9961 4.04297 63.8958 4.17318 62.8672 4.43359C61.8516 4.69401 60.8815 5.04557 59.957 5.48828C59.0456 5.91797 58.1667 6.41276 57.3203 6.97266C56.474 7.53255 55.6406 8.11198 54.8203 8.71094L54.2148 8.04688C54.9961 7.29167 55.8359 6.53646 56.7344 5.78125C57.6458 5.01302 58.668 4.32292 59.8008 3.71094C60.9336 3.09896 62.1966 2.60417 63.5898 2.22656C64.9961 1.83594 66.5781 1.64062 68.3359 1.64062C69.5208 1.64062 70.6081 1.84896 71.5977 2.26562C72.6003 2.68229 73.4596 3.26172 74.1758 4.00391C74.8919 4.74609 75.4518 5.625 75.8555 6.64062C76.2591 7.65625 76.4609 8.76302 76.4609 9.96094C76.4609 11.8229 75.9922 13.444 75.0547 14.8242C74.1172 16.1914 72.8477 17.3047 71.2461 18.1641C71.0508 18.2682 70.8034 18.4049 70.5039 18.5742C70.2174 18.7435 69.8984 18.9258 69.5469 19.1211C69.2083 19.3164 68.8568 19.5117 68.4922 19.707C68.1276 19.9023 67.776 20.0846 67.4375 20.2539C67.099 20.4102 66.7865 20.5469 66.5 20.6641C66.2135 20.7812 65.9727 20.8529 65.7773 20.8789C66.0508 21.2435 66.3828 21.6797 66.7734 22.1875C67.1771 22.6953 67.5938 23.2161 68.0234 23.75C68.4531 24.2839 68.8763 24.7917 69.293 25.2734C69.7227 25.7552 70.1068 26.1458 70.4453 26.4453C70.7708 26.7188 71.0964 26.9596 71.4219 27.168C71.7604 27.3763 72.1576 27.4805 72.6133 27.4805C72.9648 27.4805 73.3164 27.4089 73.668 27.2656C74.0195 27.1094 74.3581 26.9141 74.6836 26.6797C75.0091 26.4453 75.3151 26.1914 75.6016 25.918C75.888 25.6445 76.1419 25.3906 76.3633 25.1562L77.0469 25.7617ZM60.5234 29.1211L56.5 30.6055V8.71094L60.5234 7.28516V29.1211ZM110.562 1.32812C110.146 1.95312 109.651 2.53906 109.078 3.08594C108.505 3.63281 107.874 4.11458 107.184 4.53125C106.507 4.94792 105.79 5.27995 105.035 5.52734C104.28 5.76172 103.525 5.87891 102.77 5.87891L102.32 5.91797C101.826 6.54297 101.448 7.14844 101.188 7.73438C100.927 8.32031 100.797 9.01042 100.797 9.80469V22.2852C100.797 24.0169 100.426 25.5599 99.6836 26.9141C98.9544 28.2552 97.8737 29.4141 96.4414 30.3906L95.7969 29.6484C96.0182 29.401 96.194 29.1211 96.3242 28.8086C96.4544 28.4831 96.5521 28.151 96.6172 27.8125C96.6823 27.474 96.7214 27.1354 96.7344 26.7969C96.7604 26.4453 96.7734 26.1133 96.7734 25.8008V12.0703C96.7734 11.4583 96.8971 10.8659 97.1445 10.293C97.4049 9.70703 97.7305 9.15365 98.1211 8.63281C98.5117 8.11198 98.9414 7.6237 99.4102 7.16797C99.8919 6.71224 100.354 6.29557 100.797 5.91797L94.332 5.87891C93.8372 5.87891 93.3945 5.93099 93.0039 6.03516C92.6263 6.1263 92.2747 6.26302 91.9492 6.44531C91.6237 6.6276 91.3112 6.85547 91.0117 7.12891C90.7122 7.40234 90.4062 7.72135 90.0938 8.08594L89.5273 7.48047C89.957 6.89453 90.4388 6.27604 90.9727 5.625C91.5195 4.97396 92.1055 4.38151 92.7305 3.84766C93.3685 3.3138 94.0456 2.87109 94.7617 2.51953C95.4909 2.16797 96.2526 1.99219 97.0469 1.99219H105.484C105.823 1.99219 106.201 1.97266 106.617 1.93359C107.047 1.89453 107.477 1.82943 107.906 1.73828C108.336 1.64714 108.74 1.52995 109.117 1.38672C109.508 1.23047 109.833 1.03516 110.094 0.800781L110.562 1.32812Z" fill="#9F90DA"/>
</svg>
